<?xml version="1.0" standalone="no"?>
<!DOCTYPE svg PUBLIC "-//W3C//DTD SVG 20010904//EN"
 "http://www.w3.org/TR/2001/REC-SVG-20010904/DTD/svg10.dtd">
<svg version="1.0" xmlns="http://www.w3.org/2000/svg"
 width="700.000000pt" height="700.000000pt" viewBox="0 0 700.000000 700.000000"
 preserveAspectRatio="xMidYMid meet">
<metadata>
Created by potrace 1.14, written by Peter Selinger 2001-2017
</metadata>
<g transform="translate(0.000000,700.000000) scale(0.100000,-0.100000)"
fill="#000000" stroke="none">
<path d="M2365 6986 c-123 -29 -225 -80 -324 -164 -143 -122 -251 -349 -251
-529 l0 -58 -137 -92 c-76 -50 -187 -131 -248 -179 -138 -110 -425 -396 -534
-533 -408 -513 -651 -1125 -712 -1795 -16 -180 -6 -571 20 -746 93 -627 331
-1172 724 -1660 88 -109 386 -404 497 -492 514 -408 1107 -650 1755 -719 121
-13 508 -19 519 -8 3 3 -17 62 -45 130 -46 110 -52 132 -52 196 0 102 37 176
134 262 95 86 121 139 127 270 5 108 -13 202 -50 255 -12 17 -68 81 -124 141
-112 121 -138 163 -155 246 -16 80 7 160 76 267 79 121 89 189 49 314 -17 51
-77 126 -127 156 -18 11 -156 61 -307 111 -240 79 -280 95 -307 123 -17 18
-106 164 -199 323 -92 160 -182 304 -200 321 -62 60 -167 65 -237 11 -18 -14
-57 -64 -86 -111 -28 -47 -65 -96 -81 -110 -118 -99 -300 -16 -300 136 0 24
41 198 90 388 74 279 96 351 118 379 19 23 87 64 231 140 252 131 266 145 266
259 0 66 -4 84 -29 130 -68 122 -155 172 -363 207 -81 14 -177 35 -212 46 -69
22 -401 217 -401 235 0 18 147 257 228 371 75 106 235 305 269 336 19 17 21
15 68 -55 125 -190 268 -351 340 -384 69 -33 162 -33 230 0 94 45 156 117 337
386 266 397 341 816 197 1101 -90 180 -236 304 -442 376 -90 31 -259 40 -352
19z m261 -470 c63 -29 120 -95 139 -160 19 -63 19 -99 0 -162 -40 -135 -190
-213 -332 -173 -62 17 -153 105 -171 165 -16 56 -15 147 2 189 20 48 89 120
139 144 60 30 156 28 223 -3z"/>
<path d="M5986 5368 c-109 -194 -169 -244 -320 -268 -145 -23 -209 -80 -322
-290 -88 -163 -121 -204 -196 -245 -52 -29 -56 -30 -248 -36 -189 -5 -198 -6
-275 -37 -100 -40 -200 -114 -261 -195 -78 -104 -97 -155 -164 -458 -30 -139
-69 -209 -244 -443 -87 -115 -164 -223 -173 -240 -9 -17 -16 -54 -16 -82 0
-86 28 -122 188 -239 170 -124 191 -135 250 -135 38 0 141 21 225 45 13 4 15
-14 16 -123 1 -186 47 -360 150 -564 116 -230 343 -524 449 -581 62 -34 182
-31 252 6 146 76 445 527 529 797 14 47 29 92 32 101 6 13 74 -35 330 -232
178 -137 327 -247 332 -244 4 3 29 55 55 117 134 316 214 620 257 968 17 139
17 582 -1 725 -16 135 -55 353 -82 460 -88 347 -255 722 -454 1021 -102 153
-214 303 -227 304 -4 0 -41 -60 -82 -132z m-696 -2483 c89 -45 144 -138 143
-240 -1 -72 -21 -122 -70 -176 -68 -76 -172 -106 -270 -78 -70 19 -156 106
-177 178 -20 68 -20 94 -1 157 25 85 106 162 193 184 53 13 127 3 182 -25z"/>
</g>
</svg>
